<?xml version="1.0" encoding="UTF-8"?>
<svg id="Layer_1" xmlns="http://www.w3.org/2000/svg" version="1.1" viewBox="0 0 292.6 280.9">
  <!-- Generator: Adobe Illustrator 29.0.1, SVG Export Plug-In . SVG Version: 2.1.0 Build 192)  -->
  <defs>
    <style>
      .st0 {
        fill: #fff;
      }

      .st1 {
        fill: #5d61e1;
      }
    </style>
  </defs>
  <circle class="st0" cx="133.4" cy="137.9" r="102.8"/>
  <rect class="st0" x="61.3" y="64.6" width="145" height="151.4"/>
  <g>
    <path class="st1" d="M172.9,141.5c-1.6-1.2-3.5-1.7-5.7-1.7h-28.3v25.1h27.4c2.2,0,4.3-.6,6.1-1.7s3.3-2.6,4.3-4.5c1.1-1.9,1.6-3.9,1.6-6.1s-.5-4.6-1.5-6.5c-1-1.9-2.3-3.4-3.9-4.6h0Z"/>
    <path class="st1" d="M128.2,262.6h-.3.3Z"/>
    <path class="st1" d="M169.1,123.9c1.7-1,3.1-2.4,4.1-4.1s1.5-3.9,1.5-6.3-.5-4.6-1.4-6.3c-.9-1.7-2.2-3.1-3.8-4.1s-3.3-1.5-5.3-1.5h-25.4v23.9h24.6c2.1,0,3.9-.5,5.6-1.5h0Z"/>
    <path class="st1" d="M265.1,15.2c-10.6,3.2-21.5,4.9-32.6,4.9h-104.4C61.5,20.1,6.9,74.7,6.9,141.4s54.5,121.2,121.1,121.2c66.6,0,121.1-41.1,121.1-121.2S284,9.5,284,9.5l-18.9,5.8ZM110.3,183.3c0,5-1.1,9.4-3.3,13.2-2.2,3.9-5.2,6.9-8.8,9.1-3.7,2.2-7.7,3.3-12.2,3.3s-6.6-.5-9.6-1.6-5.8-2.7-8.2-4.8l7.6-12c1,1,2.2,1.7,3.6,2.1,1.4.4,2.8.7,4.3.7s3.1-.4,4.3-1.1c1.3-.8,2.3-1.8,3.1-3.1s1.1-2.8,1.1-4.5v-71.3h18.1v70.1h0ZM110.3,103.3h-18v-17.6h18.1s0,17.6,0,17.6ZM192.7,169.5c-2.8,3.6-6.5,6.4-11.2,8.2-4.7,1.9-9.8,2.8-15.3,2.8h-45.8v-94.9h50.8c4.5,0,8.3,1.2,11.6,3.5,3.3,2.4,5.8,5.4,7.5,9.1,1.7,3.7,2.6,7.6,2.6,11.6s-1.2,8.8-3.5,12.9-5.7,7.1-10.2,9.2c5.4,1.6,9.7,4.5,12.9,8.7,3.2,4.2,4.8,9.4,4.8,15.6s-1.4,9.7-4.1,13.3h0Z"/>
  </g>
</svg>