<?xml version="1.0" encoding="UTF-8"?>
<svg id="Layer_1" xmlns="http://www.w3.org/2000/svg" version="1.1" viewBox="0 0 744.6 208.7">
  <!-- Generator: Adobe Illustrator 29.0.1, SVG Export Plug-In . SVG Version: 2.1.0 Build 192)  -->
  <defs>
    <style>
      .st0 {
        fill: #fff;
      }

      .st1 {
        fill: #5d61e1;
      }
    </style>
  </defs>
  <rect class="st0" x="66.8" y="49.6" width="598" height="115.3"/>
  <g>
    <path class="st1" d="M276.9,99.6c-2.1-1.5-4.6-2.2-7.4-2.2s-3.9.5-5.7,1.4c-1.8.9-3.5,2.2-4.9,3.7-1.4,1.5-2.6,3.3-3.5,5.2v12.7c.6,1.3,1.3,2.6,2.2,3.7s2,2,3.2,2.8c1.2.7,2.5,1.3,3.9,1.8s2.6.7,3.9.7c2.2,0,4.2-.4,6.1-1.2,1.9-.8,3.5-1.9,4.8-3.4,1.3-1.4,2.3-3.1,3-5,.7-1.9,1.1-3.9,1.1-6.2s-.6-5.4-1.8-7.9c-1.2-2.5-2.8-4.5-5-6h0Z"/>
    <path class="st1" d="M448,96.2c1.3-.8,2.4-1.8,3.1-3.2s1.2-3,1.2-4.9-.4-3.6-1.1-4.9c-.7-1.3-1.7-2.4-2.9-3.2-1.2-.8-2.6-1.2-4.1-1.2h-19.6v18.5h19c1.6,0,3-.4,4.3-1.1h0Z"/>
    <path class="st1" d="M450.9,109.9c-1.3-.9-2.7-1.3-4.4-1.3h-21.9v19.4h21.2c1.7,0,3.3-.4,4.7-1.3s2.5-2,3.4-3.5c.8-1.4,1.2-3,1.2-4.8s-.4-3.5-1.1-5c-.8-1.5-1.8-2.7-3-3.6h0Z"/>
    <path class="st1" d="M540.7,114.8c-3.6,0-6.5.8-8.8,2.3-2.3,1.5-3.5,3.5-3.5,6s.4,2.6,1.1,3.9c.8,1.2,1.8,2.2,3.3,3,1.4.7,3.2,1.1,5.2,1.1s4.1-.4,6.1-1.2c2-.8,3.6-1.8,4.8-3,.8-.7,1.4-1.4,1.9-2.3.5-.9.7-1.6.7-2.2v-5.3c-1.7-.7-3.4-1.2-5.4-1.6-1.9-.4-3.8-.6-5.5-.6h0Z"/>
    <path class="st1" d="M339.1,97.3c-2.1-1.1-4.4-1.7-6.9-1.7s-4.7.6-6.8,1.7c-2,1.1-3.7,2.7-5,4.6-1.3,2-2,4.3-2.3,7h28.3c-.3-2.7-1-5-2.3-7s-2.9-3.5-5-4.6h0Z"/>
    <path class="st1" d="M211.3,99.6c-2.1-1.5-4.6-2.2-7.4-2.2s-3.9.5-5.7,1.4c-1.8.9-3.4,2.2-4.9,3.7s-2.6,3.3-3.5,5.2v12.7c.6,1.3,1.3,2.6,2.2,3.7s2,2,3.2,2.8c1.2.7,2.5,1.3,3.9,1.8s2.6.7,3.9.7c2.2,0,4.2-.4,6.1-1.2,1.9-.8,3.5-1.9,4.8-3.4,1.3-1.4,2.3-3.1,3.1-5,.7-1.9,1.1-3.9,1.1-6.2s-.6-5.4-1.8-7.9c-1.2-2.5-2.8-4.5-5-6h0Z"/>
    <path class="st1" d="M138.5,114.8c-3.6,0-6.5.8-8.8,2.3-2.3,1.5-3.5,3.5-3.5,6s.4,2.6,1.1,3.9c.8,1.2,1.8,2.2,3.3,3,1.4.7,3.1,1.1,5.2,1.1s4.1-.4,6.1-1.2c2-.8,3.6-1.8,4.9-3,.8-.7,1.4-1.4,1.9-2.3.5-.9.7-1.6.7-2.2v-5.3c-1.6-.7-3.4-1.2-5.4-1.6-1.9-.4-3.8-.6-5.5-.6h0Z"/>
    <path class="st1" d="M726.9,34.7c-6.1,1.9-12.4,2.8-18.8,2.8H76.8c-38.5,0-69.9,31.5-69.9,69.9s31.5,69.9,69.9,69.9h570.9c38.5,0,69.9-23.7,69.9-69.9s20.1-76.1,20.1-76.1l-10.9,3.3h0ZM104.3,140.6c0,3.8-.9,7.2-2.6,10.2-1.7,3-4,5.3-6.8,7-2.8,1.7-6,2.6-9.4,2.6s-5.1-.4-7.4-1.2c-2.3-.8-4.4-2.1-6.3-3.7l5.9-9.3c.8.8,1.7,1.3,2.8,1.6,1.1.4,2.2.5,3.3.5s2.4-.3,3.4-.9,1.8-1.4,2.4-2.4c.6-1,.9-2.2.9-3.5v-55.1h13.9v54.2h0ZM104.3,78.8h-13.9v-13.6h13.9v13.6ZM166.5,140.1c-1.2.2-2.4.4-3.4.5s-1.8.2-2.5.1c-2.8,0-4.8-.6-6.2-1.8s-2.3-2.7-2.5-4.5l-.3-2.8c-2.4,3-5.4,5.4-8.9,7-3.5,1.6-7.1,2.5-10.8,2.5s-6.8-.8-9.7-2.2-5.1-3.5-6.7-6.1c-1.6-2.6-2.4-5.4-2.4-8.5s1-6.5,2.9-9.1,4.7-4.6,8.2-6.1c3.5-1.5,7.5-2.2,12.1-2.2s4.6.2,6.9.5,4.4.9,6.1,1.7v-3c0-3.3-1-5.9-3-7.7-2-1.8-5-2.7-9-2.7s-5.9.5-8.6,1.6c-2.7,1-5.5,2.5-8.5,4.4l-4.3-9c3.5-2.4,7.1-4.2,10.9-5.3s7.7-1.7,11.8-1.7c7.7,0,13.7,1.9,18,5.7,4.3,3.8,6.5,9.2,6.5,16.3v17c0,1.4.3,2.4.8,3.1s1.4,1,2.5,1.1v11.3h0ZM230.4,124.3c-1.3,3.3-3.1,6.2-5.4,8.8-2.3,2.6-5,4.5-8,5.9-3,1.4-6.4,2.1-10,2.1s-7.8-.9-11.1-2.8c-3.2-1.9-5.8-4.4-7.6-7.6v9.4h-12.1v-75.4h13.7v31.4c2-3.2,4.6-5.8,7.7-7.7s6.8-2.8,11-2.8,6.7.7,9.6,2.2,5.4,3.5,7.5,6.1c2.1,2.6,3.7,5.6,4.9,8.9,1.2,3.4,1.8,6.9,1.8,10.7s-.6,7.5-2,10.8h0ZM295.9,124.3c-1.3,3.3-3.1,6.2-5.4,8.8-2.3,2.6-5,4.5-8,5.9-3,1.4-6.4,2.1-10,2.1s-7.8-.9-11.1-2.8-5.8-4.4-7.6-7.6v9.4h-12.1v-75.4h13.7v31.4c2-3.2,4.6-5.8,7.7-7.7s6.8-2.8,11-2.8,6.7.7,9.6,2.2c2.9,1.5,5.4,3.5,7.5,6.1,2.1,2.6,3.7,5.6,4.9,8.9,1.2,3.4,1.8,6.9,1.8,10.7s-.7,7.5-2,10.8h0ZM360.5,115.6c0,.8-.1,1.4-.2,2h-41.8c.2,2.8,1,5.2,2.3,7.2,1.3,2,3.1,3.5,5.2,4.6,2.1,1.1,4.3,1.6,6.7,1.6s5.5-.7,7.9-2c2.5-1.3,4.1-3.2,5-5.4l11.8,3.3c-1.2,2.8-3.1,5.2-5.5,7.3s-5.3,3.8-8.6,5c-3.3,1.2-7,1.8-11.1,1.8s-8.3-.7-11.8-2.2c-3.5-1.5-6.5-3.5-9-6-2.5-2.6-4.4-5.5-5.7-8.7s-2-6.8-2-10.5,1.1-9.7,3.5-13.9c2.3-4.3,5.6-7.7,9.8-10.2,4.2-2.6,9.3-3.8,15.2-3.8s10.9,1.3,15.1,3.8c4.2,2.6,7.4,5.9,9.7,10.1,2.3,4.2,3.4,8.7,3.4,13.6s0,1.7-.1,2.5h0ZM401.4,97.9c-4.3,0-8.1.9-11.4,2.4-3.3,1.6-5.7,3.8-7.2,6.9v32.9h-13.8v-53.6h12.7v11.1c1.9-3.7,4.4-6.7,7.4-8.8,3-2.1,6.1-3.3,9.5-3.5.7,0,1.2,0,1.7,0,.4,0,.8,0,1.1.2v12.5h0ZM466.3,131.5c-2.1,2.8-5,4.9-8.6,6.4-3.6,1.4-7.6,2.2-11.8,2.2h-35.4v-73.4h39.3c3.4,0,6.4.9,8.9,2.7,2.5,1.8,4.4,4.2,5.8,7,1.3,2.9,2,5.8,2,8.9s-.9,6.8-2.7,10c-1.8,3.1-4.4,5.5-7.9,7.1,4.2,1.2,7.5,3.5,10,6.7s3.7,7.3,3.7,12.1-1.1,7.5-3.2,10.3h0ZM511.6,97.9c-4.3,0-8.1.9-11.4,2.4-3.3,1.6-5.7,3.8-7.2,6.9v32.9h-13.7v-53.6h12.7v11.1c1.9-3.7,4.4-6.7,7.4-8.8,3-2.1,6.1-3.3,9.5-3.5.7,0,1.2,0,1.6,0,.4,0,.8,0,1.1.2v12.5h0ZM568.7,140.1c-1.2.2-2.4.4-3.4.5s-1.8.2-2.5.1c-2.8,0-4.8-.6-6.2-1.8s-2.3-2.7-2.5-4.5l-.3-2.8c-2.4,3-5.4,5.4-8.9,7s-7.1,2.5-10.8,2.5-6.8-.8-9.7-2.2c-2.9-1.5-5.1-3.5-6.7-6.1-1.6-2.6-2.4-5.4-2.4-8.5s1-6.5,3-9.1c2-2.6,4.7-4.6,8.2-6.1s7.5-2.2,12.1-2.2,4.6.2,6.9.5c2.3.3,4.4.9,6.1,1.7v-3c0-3.3-1-5.9-3-7.7s-5-2.7-9-2.7-5.9.5-8.6,1.6c-2.7,1-5.5,2.5-8.5,4.4l-4.3-9c3.5-2.4,7.1-4.2,10.9-5.3s7.7-1.7,11.8-1.7c7.7,0,13.7,1.9,18,5.7,4.3,3.8,6.5,9.2,6.5,16.3v17c0,1.4.3,2.4.8,3.1s1.4,1,2.5,1.1v11.3h0ZM592,140.1h-13.8v-54.2h13.8v54.2ZM592,78.3h-13.8v-13.6h13.8v13.6ZM655,140.1h-13.8v-29.9c0-4.3-.7-7.4-2.2-9.4s-3.6-3-6.4-3-3.7.5-5.6,1.4-3.6,2.2-5.1,3.9-2.6,3.6-3.5,5.7v31.3h-13.7v-53.6h12.5v10c1.4-2.3,3.1-4.3,5.3-5.8,2.1-1.6,4.6-2.8,7.3-3.7,2.8-.9,5.7-1.3,8.9-1.3s6.2.6,8.3,1.8c2.2,1.2,3.8,2.8,5,4.8,1.1,2,1.9,4.3,2.4,6.8.5,2.5.7,5,.7,7.5v33.5h0Z"/>
  </g>
</svg>